<svg width="470" height="327" viewBox="0 0 470 327" fill="none" xmlns="http://www.w3.org/2000/svg">
<rect width="470" height="327" fill="#F5F5F5"/>
<mask id="path-1-inside-1_0_1" fill="white">
<path fill-rule="evenodd" clip-rule="evenodd" d="M157.642 132.053C149.454 130.707 140.971 130 132.279 130C63.6416 130 8 174.1 8 228.5C8 282.9 63.6416 327 132.279 327C140.971 327 149.454 326.293 157.642 324.947C120.312 315.666 92.2569 276.011 92.2569 228.5C92.2569 180.989 120.312 141.334 157.642 132.053Z"/>
</mask>
<g filter="url(#filter0_i_0_1)">
<path fill-rule="evenodd" clip-rule="evenodd" d="M157.642 132.053C149.454 130.707 140.971 130 132.279 130C63.6416 130 8 174.1 8 228.5C8 282.9 63.6416 327 132.279 327C140.971 327 149.454 326.293 157.642 324.947C120.312 315.666 92.2569 276.011 92.2569 228.5C92.2569 180.989 120.312 141.334 157.642 132.053Z" fill="#1B5583" fill-opacity="0.49"/>
</g>
<path d="M157.642 132.053L157.883 133.023L157.804 131.066L157.642 132.053ZM157.642 324.947L157.804 325.934L157.883 323.977L157.642 324.947ZM132.279 131C140.916 131 149.345 131.703 157.48 133.04L157.804 131.066C149.562 129.712 141.025 129 132.279 129V131ZM9 228.5C9 174.856 63.9646 131 132.279 131V129C63.3186 129 7 173.343 7 228.5H9ZM132.279 326C63.9646 326 9 282.144 9 228.5H7C7 283.657 63.3186 328 132.279 328V326ZM157.48 323.96C149.345 325.297 140.916 326 132.279 326V328C141.025 328 149.562 327.288 157.804 325.934L157.48 323.96ZM157.883 323.977C121.096 314.831 93.2569 275.661 93.2569 228.5H91.2569C91.2569 276.362 119.527 316.501 157.401 325.918L157.883 323.977ZM93.2569 228.5C93.2569 181.339 121.096 142.169 157.883 133.023L157.401 131.082C119.527 140.499 91.2569 180.638 91.2569 228.5H93.2569Z" fill="#1B5583" mask="url(#path-1-inside-1_0_1)"/>
<path fill-rule="evenodd" clip-rule="evenodd" d="M333 325.062C340.496 326.332 348.263 327 356.22 327C419.059 327 470 285.362 470 234C470 182.638 419.059 141 356.22 141C348.263 141 340.496 141.668 333 142.938C367.177 151.701 392.861 189.142 392.861 234C392.861 278.858 367.177 316.299 333 325.062Z" fill="#1B5583"/>
<mask id="path-4-inside-2_0_1" fill="white">
<path fill-rule="evenodd" clip-rule="evenodd" d="M283 139.531C291.479 140.494 300.263 141 309.264 141C380.338 141 437.955 109.436 437.955 70.5C437.955 31.5639 380.338 0 309.264 0C300.263 0 291.479 0.506134 283 1.4693C321.655 8.11217 350.706 36.4944 350.706 70.5C350.706 104.506 321.655 132.888 283 139.531Z"/>
</mask>
<g filter="url(#filter1_i_0_1)">
<path fill-rule="evenodd" clip-rule="evenodd" d="M283 139.531C291.479 140.494 300.263 141 309.264 141C380.338 141 437.955 109.436 437.955 70.5C437.955 31.5639 380.338 0 309.264 0C300.263 0 291.479 0.506134 283 1.4693C321.655 8.11217 350.706 36.4944 350.706 70.5C350.706 104.506 321.655 132.888 283 139.531Z" fill="#1B5583" fill-opacity="0.49"/>
</g>
<path d="M283 139.531L282.831 138.545L282.887 140.524L283 139.531ZM283 1.4693L282.887 0.475689L282.831 2.45485L283 1.4693ZM309.264 140C300.301 140 291.554 139.496 283.113 138.537L282.887 140.524C291.404 141.492 300.226 142 309.264 142V140ZM436.955 70.5C436.955 89.4328 422.933 106.791 399.781 119.474C376.667 132.137 344.666 140 309.264 140V142C344.936 142 377.28 134.081 400.742 121.228C424.168 108.395 438.955 90.5033 438.955 70.5H436.955ZM309.264 1C344.666 1 376.667 8.86315 399.781 21.526C422.933 34.209 436.955 51.5672 436.955 70.5H438.955C438.955 50.4967 424.168 32.6049 400.742 19.772C377.28 6.91882 344.936 -1 309.264 -1V1ZM283.113 2.46291C291.554 1.50404 300.301 1 309.264 1V-1C300.226 -1 291.404 -0.49177 282.887 0.475689L283.113 2.46291ZM282.831 2.45485C321.153 9.04053 349.706 37.1168 349.706 70.5H351.706C351.706 35.8721 322.158 7.18381 283.169 0.483746L282.831 2.45485ZM349.706 70.5C349.706 103.883 321.153 131.959 282.831 138.545L283.169 140.516C322.158 133.816 351.706 105.128 351.706 70.5H349.706Z" fill="#1B5583" mask="url(#path-4-inside-2_0_1)"/>
<path fill-rule="evenodd" clip-rule="evenodd" d="M264.037 86.4391C263.513 38.641 204.608 0 132.02 0C122.787 0 113.775 0.625183 105.077 1.81487C144.53 9.9782 174.231 44.7207 174.533 86.4391H174.441V240.561H174.445C174.966 288.359 233.871 327 306.459 327C315.691 327 324.703 326.375 333.401 325.185C293.947 317.022 264.247 282.279 263.947 240.561H264.037V86.4552V86.4391ZM0 87.0817C0 86.9847 0.000244141 86.8878 0.000732422 86.7909C0.000427246 86.8878 0.000244141 86.9847 0.000244141 87.0817C0.000244141 87.1786 0.000427246 87.2755 0.000732422 87.3724C0.000244141 87.2755 0 87.1786 0 87.0817Z" fill="#1B5583"/>
<ellipse cx="83.5" cy="63.5" rx="43.5" ry="41.5" fill="#1B5583"/>
<defs>
<filter id="filter0_i_0_1" x="8" y="130" width="149.642" height="201" filterUnits="userSpaceOnUse" color-interpolation-filters="sRGB">
<feFlood flood-opacity="0" result="BackgroundImageFix"/>
<feBlend mode="normal" in="SourceGraphic" in2="BackgroundImageFix" result="shape"/>
<feColorMatrix in="SourceAlpha" type="matrix" values="0 0 0 0 0 0 0 0 0 0 0 0 0 0 0 0 0 0 127 0" result="hardAlpha"/>
<feOffset dy="4"/>
<feGaussianBlur stdDeviation="2"/>
<feComposite in2="hardAlpha" operator="arithmetic" k2="-1" k3="1"/>
<feColorMatrix type="matrix" values="0 0 0 0 0 0 0 0 0 0 0 0 0 0 0 0 0 0 0.25 0"/>
<feBlend mode="normal" in2="shape" result="effect1_innerShadow_0_1"/>
</filter>
<filter id="filter1_i_0_1" x="283" y="0" width="154.955" height="145" filterUnits="userSpaceOnUse" color-interpolation-filters="sRGB">
<feFlood flood-opacity="0" result="BackgroundImageFix"/>
<feBlend mode="normal" in="SourceGraphic" in2="BackgroundImageFix" result="shape"/>
<feColorMatrix in="SourceAlpha" type="matrix" values="0 0 0 0 0 0 0 0 0 0 0 0 0 0 0 0 0 0 127 0" result="hardAlpha"/>
<feOffset dy="4"/>
<feGaussianBlur stdDeviation="2"/>
<feComposite in2="hardAlpha" operator="arithmetic" k2="-1" k3="1"/>
<feColorMatrix type="matrix" values="0 0 0 0 0 0 0 0 0 0 0 0 0 0 0 0 0 0 0.25 0"/>
<feBlend mode="normal" in2="shape" result="effect1_innerShadow_0_1"/>
</filter>
</defs>
</svg>
